<svg width="600" height="100" viewBox="0 0 600 100" xmlns="http://www.w3.org/2000/svg">
  <!-- Dice 1 -->
  <g transform="translate(0,0)">
    <rect x="10" y="10" width="80" height="80" rx="15" fill="#fff" stroke="#000" stroke-width="2"/>
    <circle cx="50" cy="50" r="8" fill="#000"/>
  </g>
  
  <!-- Dice 2 -->
  <g transform="translate(100,0)">
    <rect x="10" y="10" width="80" height="80" rx="15" fill="#fff" stroke="#000" stroke-width="2"/>
    <circle cx="30" cy="30" r="8" fill="#000"/>
    <circle cx="70" cy="70" r="8" fill="#000"/>
  </g>
  
  <!-- Dice 3 -->
  <g transform="translate(200,0)">
    <rect x="10" y="10" width="80" height="80" rx="15" fill="#fff" stroke="#000" stroke-width="2"/>
    <circle cx="30" cy="30" r="8" fill="#000"/>
    <circle cx="50" cy="50" r="8" fill="#000"/>
    <circle cx="70" cy="70" r="8" fill="#000"/>
  </g>
  
  <!-- Dice 4 -->
  <g transform="translate(300,0)">
    <rect x="10" y="10" width="80" height="80" rx="15" fill="#fff" stroke="#000" stroke-width="2"/>
    <circle cx="30" cy="30" r="8" fill="#000"/>
    <circle cx="70" cy="30" r="8" fill="#000"/>
    <circle cx="30" cy="70" r="8" fill="#000"/>
    <circle cx="70" cy="70" r="8" fill="#000"/>
  </g>
  
  <!-- Dice 5 -->
  <g transform="translate(400,0)">
    <rect x="10" y="10" width="80" height="80" rx="15" fill="#fff" stroke="#000" stroke-width="2"/>
    <circle cx="30" cy="30" r="8" fill="#000"/>
    <circle cx="70" cy="30" r="8" fill="#000"/>
    <circle cx="50" cy="50" r="8" fill="#000"/>
    <circle cx="30" cy="70" r="8" fill="#000"/>
    <circle cx="70" cy="70" r="8" fill="#000"/>
  </g>
  
  <!-- Dice 6 -->
  <g transform="translate(500,0)">
    <rect x="10" y="10" width="80" height="80" rx="15" fill="#fff" stroke="#000" stroke-width="2"/>
    <circle cx="30" cy="25" r="8" fill="#000"/>
    <circle cx="70" cy="25" r="8" fill="#000"/>
    <circle cx="30" cy="50" r="8" fill="#000"/>
    <circle cx="70" cy="50" r="8" fill="#000"/>
    <circle cx="30" cy="75" r="8" fill="#000"/>
    <circle cx="70" cy="75" r="8" fill="#000"/>
  </g>
</svg> 